<svg width="16" height="22" viewBox="0 0 16 22" fill="none" xmlns="http://www.w3.org/2000/svg">
<path d="M1 4.375C1 3.47989 1.35558 2.62145 1.98851 1.98851C2.62145 1.35558 3.47989 1 4.375 1H7.75V7.75H4.375C3.47989 7.75 2.62145 7.39442 1.98851 6.76149C1.35558 6.12855 1 5.27011 1 4.375Z" fill="#F24E1E"/>
<path d="M7.75 1H11.125C11.5682 1 12.0071 1.0873 12.4166 1.25691C12.826 1.42652 13.1981 1.67512 13.5115 1.98851C13.8249 2.30191 14.0735 2.67397 14.2431 3.08344C14.4127 3.49292 14.5 3.93179 14.5 4.375C14.5 4.81821 14.4127 5.25708 14.2431 5.66656C14.0735 6.07603 13.8249 6.44809 13.5115 6.76149C13.1981 7.07488 12.826 7.32348 12.4166 7.49309C12.0071 7.6627 11.5682 7.75 11.125 7.75H7.75V1Z" fill="#FF7262"/>
<path d="M7.75 11.125C7.75 10.6818 7.8373 10.2429 8.00691 9.83344C8.17652 9.42397 8.42512 9.05191 8.73851 8.73851C9.05191 8.42512 9.42397 8.17652 9.83344 8.00691C10.2429 7.8373 10.6818 7.75 11.125 7.75C11.5682 7.75 12.0071 7.8373 12.4166 8.00691C12.826 8.17652 13.1981 8.42512 13.5115 8.73851C13.8249 9.05191 14.0735 9.42397 14.2431 9.83344C14.4127 10.2429 14.5 10.6818 14.5 11.125C14.5 11.5682 14.4127 12.0071 14.2431 12.4166C14.0735 12.826 13.8249 13.1981 13.5115 13.5115C13.1981 13.8249 12.826 14.0735 12.4166 14.2431C12.0071 14.4127 11.5682 14.5 11.125 14.5C10.6818 14.5 10.2429 14.4127 9.83344 14.2431C9.42397 14.0735 9.05191 13.8249 8.73851 13.5115C8.42512 13.1981 8.17652 12.826 8.00691 12.4166C7.8373 12.0071 7.75 11.5682 7.75 11.125Z" fill="#1ABCFE"/>
<path d="M1 17.875C1 16.9799 1.35558 16.1214 1.98851 15.4885C2.62145 14.8556 3.47989 14.5 4.375 14.5H7.75V17.875C7.75 18.7701 7.39442 19.6286 6.76149 20.2615C6.12855 20.8944 5.27011 21.25 4.375 21.25C3.47989 21.25 2.62145 20.8944 1.98851 20.2615C1.35558 19.6286 1 18.7701 1 17.875Z" fill="#0ACF83"/>
<path d="M1 11.125C1 10.2299 1.35558 9.37145 1.98851 8.73851C2.62145 8.10558 3.47989 7.75 4.375 7.75H7.75V14.5H4.375C3.47989 14.5 2.62145 14.1444 1.98851 13.5115C1.35558 12.8785 1 12.0201 1 11.125Z" fill="#A259FF"/>
<path d="M7.75 1H4.375C3.47989 1 2.62145 1.35558 1.98851 1.98851C1.35558 2.62145 1 3.47989 1 4.375C1 5.27011 1.35558 6.12855 1.98851 6.76149C2.62145 7.39442 3.47989 7.75 4.375 7.75M7.75 1V7.75M7.75 1H11.125C11.5682 1 12.0071 1.0873 12.4166 1.25691C12.826 1.42652 13.1981 1.67512 13.5115 1.98851C13.8249 2.30191 14.0735 2.67397 14.2431 3.08344C14.4127 3.49292 14.5 3.93179 14.5 4.375C14.5 4.81821 14.4127 5.25708 14.2431 5.66656C14.0735 6.07603 13.8249 6.44809 13.5115 6.76149C13.1981 7.07488 12.826 7.32348 12.4166 7.49309C12.0071 7.6627 11.5682 7.75 11.125 7.75M7.75 7.75H4.375M7.75 7.75H11.125M7.75 7.75V14.5M4.375 7.75C3.47989 7.75 2.62145 8.10558 1.98851 8.73851C1.35558 9.37145 1 10.2299 1 11.125C1 12.0201 1.35558 12.8785 1.98851 13.5115C2.62145 14.1444 3.47989 14.5 4.375 14.5M11.125 7.75C10.6818 7.75 10.2429 7.8373 9.83344 8.00691C9.42397 8.17652 9.05191 8.42512 8.73851 8.73851C8.42512 9.05191 8.17652 9.42397 8.00691 9.83344C7.8373 10.2429 7.75 10.6818 7.75 11.125C7.75 11.5682 7.8373 12.0071 8.00691 12.4166C8.17652 12.826 8.42512 13.1981 8.73851 13.5115C9.05191 13.8249 9.42397 14.0735 9.83344 14.2431C10.2429 14.4127 10.6818 14.5 11.125 14.5C11.5682 14.5 12.0071 14.4127 12.4166 14.2431C12.826 14.0735 13.1981 13.8249 13.5115 13.5115C13.8249 13.1981 14.0735 12.826 14.2431 12.4166C14.4127 12.0071 14.5 11.5682 14.5 11.125C14.5 10.6818 14.4127 10.2429 14.2431 9.83344C14.0735 9.42397 13.8249 9.05191 13.5115 8.73851C13.1981 8.42512 12.826 8.17652 12.4166 8.00691C12.0071 7.8373 11.5682 7.75 11.125 7.75ZM4.375 14.5C3.47989 14.5 2.62145 14.8556 1.98851 15.4885C1.35558 16.1214 1 16.9799 1 17.875C1 18.7701 1.35558 19.6286 1.98851 20.2615C2.62145 20.8944 3.47989 21.25 4.375 21.25C5.27011 21.25 6.12855 20.8944 6.76149 20.2615C7.39442 19.6286 7.75 18.7701 7.75 17.875V14.5M4.375 14.5H7.75" stroke="#333333" stroke-width="1.1" stroke-linecap="round" stroke-linejoin="round"/>
</svg>
