<svg width="38" height="24" viewBox="0 0 38 24" fill="none" xmlns="http://www.w3.org/2000/svg">
<path d="M3.75764 11.1782C3.83089 11.392 3.74719 11.7797 3.6986 11.9992C3.69777 12.0032 3.69693 12.0071 3.69609 12.0111C3.68456 12.0635 3.67729 12.1118 3.66839 12.1711C3.64676 12.31 3.62067 12.5004 3.49488 12.8972C3.48025 12.9997 3.46385 13.1021 3.44573 13.2037C3.44331 13.2173 3.4409 13.2308 3.43848 13.2444C3.27552 14.1577 3.1444 15.0948 3.03406 16.0693C3.01196 16.2583 2.99187 16.4505 2.97335 16.6437C2.97366 16.6583 2.974 16.6732 2.97435 16.6882C2.98079 16.9799 2.99566 17.3422 2.96462 17.5711C2.92491 17.8621 2.88988 18.0604 2.86002 18.2238C2.83221 18.7884 2.82852 19.5207 2.87346 19.8594C2.91792 20.0616 3.03059 20.2519 3.23432 20.4808C3.27772 20.5299 3.32399 20.5796 3.37262 20.6304C3.49237 20.7572 3.61361 20.8501 3.71897 20.8965C3.85316 20.9572 3.94591 20.9502 4.33823 20.9757C4.3807 20.9766 4.42609 20.9789 4.47382 20.9836C4.59072 20.9868 4.70796 20.9852 4.81849 20.9826C5.00961 20.978 5.18272 20.9707 5.32417 20.9783C5.66505 20.9965 6.05071 21.0704 6.33869 21.1224C6.38563 21.131 6.43024 21.1389 6.47126 21.146C6.70305 21.1524 6.93512 21.156 7.16604 21.1571C7.18092 21.1661 7.19524 21.1755 7.2108 21.1851C7.23236 21.1987 7.25436 21.2108 7.27683 21.2218C7.49888 21.3119 7.71289 21.338 8.04664 21.3626C8.209 21.3746 8.39582 21.3862 8.61492 21.4022C8.6779 21.4067 8.72665 21.4178 8.76728 21.4319C8.82195 21.4496 8.86189 21.4725 8.89687 21.4929C8.91548 21.5037 8.93298 21.5139 8.95065 21.5222C9.01104 21.5508 9.07673 21.5247 9.15456 21.4944C9.25545 21.4551 9.37733 21.4085 9.53062 21.4649C10.0173 21.6455 10.2377 21.5609 10.4073 21.4951C10.4568 21.476 10.5017 21.4587 10.5469 21.4506C10.6935 21.4245 10.8945 21.4766 11.044 21.5382C11.1626 21.5871 11.4085 21.5652 11.5932 21.5263C11.6145 21.5219 11.6379 21.5193 11.663 21.5179L11.6349 21.5167C11.6912 21.5114 11.7612 21.5124 11.8372 21.5134C11.9514 21.5148 12.084 21.5162 12.2265 21.4962C12.5869 21.4456 12.7781 21.4198 12.9321 21.3994C12.9759 21.3935 13.017 21.3882 13.0577 21.3826C13.1867 21.3648 13.3468 21.3501 13.5089 21.3348C13.7028 21.3166 13.8991 21.2975 14.0485 21.2723C14.3214 21.2883 14.5958 21.3065 14.8636 21.3228C14.9757 21.3296 15.0875 21.336 15.1952 21.3413C15.3857 21.3507 15.558 21.4324 15.6711 21.5692C15.7753 21.7079 15.9323 21.8742 15.9657 22.0786C15.9984 22.2803 15.9939 22.4908 15.8324 22.6711C15.6749 22.8478 15.4657 22.9514 15.2559 22.9758C15.1365 22.9895 15.0173 23.0019 14.8994 23.0136C14.605 23.0427 14.3117 23.0677 14.0201 23.0883C13.5233 23.1233 13.0275 23.1452 12.5298 23.1421C12.221 23.1401 11.9124 23.1332 11.599 23.1193L11.5648 23.1179C11.525 23.1146 11.4845 23.111 11.4448 23.1075C11.4086 23.1042 11.3725 23.1008 11.3364 23.0974C11.0379 23.1279 10.7447 23.1516 10.5406 23.1527C10.3721 23.1536 10.2529 23.1176 10.151 23.0869C10.0808 23.0659 10.0189 23.0473 9.95513 23.0451C9.9209 23.0439 9.8741 23.0437 9.81778 23.0437C9.58751 23.0434 9.20094 23.0452 8.85897 22.9848C8.8173 22.9774 8.77356 22.9685 8.72918 22.9586C8.59578 22.9322 8.45465 22.8955 8.31986 22.8582C8.05308 22.7847 7.81187 22.7081 7.68728 22.7136C7.51781 22.7218 7.32106 22.6894 7.18496 22.6637C7.13723 22.6562 7.08908 22.6481 7.04306 22.6402C6.83745 22.605 6.65851 22.5724 6.55315 22.5984C6.42713 22.6294 6.32391 22.6041 6.1706 22.5656C6.06437 22.5389 5.93407 22.5059 5.75509 22.4796C5.54836 22.4491 5.40438 22.4043 5.28208 22.3656C5.10945 22.3109 4.98169 22.2693 4.77565 22.2889C4.59249 22.3064 4.39994 22.307 4.23286 22.2773C4.21808 22.275 4.19936 22.271 4.17735 22.2655C4.12686 22.2523 4.04144 22.251 3.92715 22.245C3.77743 22.2379 3.5754 22.2122 3.40758 22.138C3.26864 22.0776 3.17469 21.9888 3.10338 21.91C3.08025 21.8849 3.06106 21.8617 3.04095 21.8388C2.94952 21.7844 2.86531 21.7251 2.78667 21.6636C2.77006 21.6586 2.75167 21.6527 2.73387 21.6474C2.6567 21.6234 2.5661 21.5919 2.474 21.5347C2.45825 21.5257 2.44259 21.516 2.42672 21.5052C2.27118 21.3993 2.16655 21.2567 2.06303 21.0899C1.98263 20.9594 1.90242 20.8148 1.80383 20.6455C1.73994 20.5359 1.66706 20.4075 1.60731 20.2733C1.60339 20.2639 1.59962 20.2546 1.596 20.2453C1.49929 19.9855 1.46554 19.8295 1.46207 19.6956C1.46199 19.6474 1.4825 19.6045 1.50321 19.5628C1.50334 19.5626 1.50347 19.5624 1.50361 19.5622C1.50501 19.5594 1.50637 19.5565 1.50777 19.5537C1.45782 19.2567 1.41757 18.9657 1.3801 18.6767C1.37235 18.6519 1.3647 18.6265 1.35719 18.6013C1.32058 18.4803 1.28593 18.3613 1.2408 18.2847C1.1918 18.2019 1.15773 17.9896 1.12482 17.7656C1.10317 17.6188 1.0819 17.4671 1.05531 17.3429C1.03976 17.2703 1.06515 17.201 1.09155 17.13C1.11619 17.0639 1.14166 16.9956 1.13554 16.9215C1.13248 16.8844 1.12194 16.8438 1.11077 16.8009C1.10094 16.7632 1.09058 16.7229 1.08448 16.6808C1.07883 16.6419 1.09388 16.5546 1.1139 16.4439C1.1263 16.3744 1.14054 16.2974 1.15318 16.2144C1.14986 16.1429 1.14703 16.0689 1.14459 15.9972C1.13958 15.8542 1.13565 15.7091 1.13316 15.5645C1.11274 15.5185 1.08538 15.4776 1.0493 15.4446C1.02342 15.4209 0.99211 15.3999 0.960106 15.3787C0.91656 15.3498 0.871631 15.319 0.836758 15.2789C0.809508 15.2476 0.800117 15.211 0.813583 15.1884C0.819867 15.1777 0.830963 15.1699 0.841001 15.1628C0.852499 15.1547 0.862731 15.1474 0.863061 15.1377C0.863279 15.1308 0.855989 15.123 0.847171 15.1136C0.833087 15.0985 0.814922 15.0789 0.816101 15.0507C0.820467 14.946 0.835248 14.8273 0.850712 14.7109C0.867866 14.5816 0.88581 14.4549 0.889763 14.353C0.894136 14.2387 0.939481 14.0792 0.987074 13.9201C1.0202 13.8093 1.05434 13.6982 1.07547 13.6021C1.09615 13.508 1.09442 13.4064 1.09348 13.3078C1.09233 13.1893 1.09249 13.0748 1.13347 12.9842C1.14177 12.9659 1.17665 12.9474 1.22037 12.9243C1.25134 12.908 1.28679 12.8894 1.32046 12.867C1.32323 12.8514 1.32606 12.8358 1.32893 12.8202C1.34584 12.7285 1.3627 12.6377 1.37951 12.5467C1.37592 12.5423 1.37227 12.5378 1.36853 12.5333C1.36844 12.5332 1.36835 12.5331 1.36826 12.5331C1.28392 12.4306 1.16726 12.2949 1.27058 12.1389C1.29689 12.0989 1.33826 12.077 1.37552 12.057C1.41212 12.0372 1.44487 12.0194 1.45522 11.9886C1.46704 11.9531 1.45186 11.9084 1.43541 11.8583C1.41221 11.7889 1.38607 11.7113 1.42766 11.6399C1.43048 11.6352 1.43357 11.6301 1.43669 11.6247C1.4663 11.5737 1.51008 11.4973 1.58853 11.4246C1.63459 11.1877 1.68317 10.9501 1.73419 10.7105C1.81897 10.3129 1.91005 9.91366 2.00194 9.51666C2.04693 9.32318 2.16318 9.14743 2.33054 9.02507C2.4976 8.90705 2.7012 8.84944 2.9017 8.87372C3.10225 8.89754 3.28629 9.00154 3.42103 9.15489C3.55507 9.31255 3.62721 9.50932 3.62648 9.70671C3.62475 10.0295 3.62414 10.3487 3.62064 10.6723C3.62291 10.6894 3.62506 10.7065 3.62698 10.7233C3.64091 10.8516 3.68446 10.9724 3.72797 11.0942C3.73793 11.1225 3.74795 11.1505 3.75764 11.1782Z" fill="#B6BB79"/>
<path d="M2.32595 3.81383C2.33699 3.50315 2.52897 3.06348 2.74585 2.66026C2.75066 2.65148 2.7548 2.64409 2.76069 2.63347C2.79956 2.57225 2.78872 2.55585 2.95271 2.34826C2.99395 2.30246 3.03574 2.25629 3.08422 2.20544C3.2613 2.03023 3.52668 1.73329 4.19996 1.45298C4.38451 1.35742 4.57228 1.27995 4.75585 1.21778C5.48955 0.97498 6.15586 0.924913 6.79045 0.901736C7.91637 0.880246 8.911 0.992536 9.93216 1.09794C9.95253 1.09843 9.9732 1.09892 9.99406 1.09941C10.3979 1.10899 10.8961 1.12324 11.2042 1.17443C11.4597 1.21684 11.6593 1.25448 11.8262 1.28756C11.9219 1.30562 12.0065 1.32302 12.0851 1.33974C12.8557 1.41813 13.6871 1.57701 14.3901 1.71148C14.9313 1.80043 15.4693 1.94871 15.9332 2.05519C16.0473 2.08061 16.157 2.10234 16.2634 2.11864C16.6453 2.1658 17.0574 2.36759 17.3247 2.60204C17.5668 2.80687 17.7301 3.00074 17.8796 3.14179C18.0851 3.34806 18.1642 3.54282 18.2285 3.70947C18.347 3.98841 18.4046 4.21552 18.457 4.42341C18.5274 4.71339 18.5723 4.95758 18.5952 5.15696C18.6112 5.29857 18.6211 5.44342 18.6277 5.5867C18.6417 5.88793 18.6602 6.23371 18.6721 6.51144C18.675 6.57638 18.6778 6.63751 18.6805 6.69422C18.7287 7.00708 18.7761 7.32564 18.8167 7.64825C18.8104 7.67072 18.8037 7.69285 18.7969 7.71569C18.7463 7.884 18.7338 8.07047 18.7351 8.30703C18.7354 8.45746 18.7465 8.63 18.763 8.8353C18.7805 9.05382 18.8043 9.31061 18.8243 9.61712C18.8371 9.81482 18.8039 9.92078 18.7766 10.0069C18.7686 10.0326 18.7611 10.0558 18.7555 10.08C18.7365 10.1604 18.7706 10.2406 18.8116 10.335L18.8136 10.3772C18.8142 10.379 18.8148 10.3808 18.8155 10.3826C18.8606 10.5101 18.915 10.6621 18.8707 10.8654C18.73 11.5129 18.8403 11.7969 18.9226 12.0107C18.9468 12.0734 18.9687 12.1301 18.9815 12.189C19.023 12.3781 18.9928 12.6522 18.9472 12.8581C18.9204 12.9801 18.9396 13.1911 18.9742 13.3934C18.9853 13.4711 18.998 13.5416 19.0113 13.6045C19.031 13.6988 19.0323 13.825 19.0335 13.9747C19.0348 14.1297 19.036 14.3086 19.058 14.4992C19.1137 14.9819 19.1402 15.2385 19.1616 15.4449C19.1677 15.5032 19.1732 15.5581 19.179 15.6133C19.1972 15.7853 19.2123 16.0001 19.2274 16.2175C19.2455 16.4775 19.2638 16.7407 19.2881 16.9413C19.2628 17.4612 19.2313 17.9814 19.1997 18.5009C19.1834 18.7677 19.091 19.0242 18.9388 19.2127C18.7865 19.4014 18.5879 19.5074 18.382 19.5075C18.1762 19.5074 17.9776 19.4014 17.8252 19.2127C17.673 19.0242 17.5805 18.7678 17.5641 18.501C17.5314 17.9635 17.4986 17.4259 17.4722 16.8882C17.4401 16.2338 17.4176 15.5793 17.4159 14.9248C17.4147 14.4675 17.418 14.0095 17.4235 13.5543C17.4241 13.5085 17.4247 13.4606 17.4253 13.4161L17.4255 13.4286C17.4255 13.4279 17.4255 13.4272 17.4255 13.4266C17.3661 13.0425 17.3109 12.6611 17.2881 12.3901C17.2693 12.1673 17.2925 12.0027 17.3125 11.8626C17.3263 11.7657 17.3385 11.6801 17.3344 11.5939C17.3322 11.5473 17.3278 11.4841 17.3225 11.4076C17.3055 11.1625 17.2801 10.7816 17.2925 10.3938L17.2958 10.463C17.2916 10.3594 17.2897 10.255 17.2913 10.1521C17.2946 9.93922 17.3151 9.68936 17.3351 9.44755C17.3633 9.10202 17.3937 8.77242 17.3673 8.60788C17.3549 8.53229 17.3466 8.45313 17.3415 8.37211C17.3281 8.16329 17.3313 7.9424 17.331 7.73878C17.3308 7.47612 17.3252 7.24411 17.2772 7.1159C17.2197 6.96316 17.2212 6.82707 17.2229 6.6217C17.2242 6.47863 17.2247 6.30377 17.2091 6.05862C17.2 5.91336 17.1996 5.78487 17.2048 5.66962C17.2103 5.5699 17.2182 5.48345 17.2252 5.40442C17.2455 5.17604 17.2609 5.00366 17.1893 4.76764C17.1106 4.50734 17.0305 4.25514 16.9984 4.12945C16.9874 4.07337 16.9531 4.03352 16.9749 4.06234C16.972 4.0595 16.969 4.05667 16.9661 4.05384C16.8267 3.9196 16.7053 3.78954 16.6217 3.68233C16.5527 3.59344 16.5204 3.51479 16.487 3.44758C16.4767 3.42672 16.4665 3.40722 16.4556 3.38951C16.3961 3.35283 16.3377 3.32606 16.2746 3.30636C16.2626 3.30914 16.2497 3.3126 16.2366 3.31648C16.1944 3.32884 16.1482 3.34603 16.0963 3.36147C16.0434 3.36718 15.9872 3.37013 15.928 3.36872C15.67 3.36202 15.4692 3.29349 15.2678 3.22589C15.1108 3.17298 14.9525 3.11918 14.7668 3.09138C14.6402 3.07242 14.4956 3.06446 14.3525 3.06033C14.3073 3.05903 14.2623 3.05808 14.2175 3.05711C14.0357 3.05132 13.8682 3.0391 13.7497 3.0101C13.6931 2.99623 13.6479 2.96435 13.6033 2.93279C13.6031 2.93261 13.6029 2.93243 13.6027 2.93225C13.5997 2.93011 13.5966 2.928 13.5936 2.92587C13.2246 2.89196 12.8694 2.87317 12.5038 2.86805C12.4722 2.87212 12.4402 2.87615 12.4076 2.88012C12.2519 2.89972 12.0995 2.9208 11.9992 2.95782C11.9479 2.97686 11.8609 2.98987 11.7515 3.0004C11.6267 3.01192 11.4753 3.01904 11.3205 3.02603C11.1279 3.03476 10.9298 3.04337 10.7676 3.06032C10.6739 3.07028 10.5855 3.03978 10.4957 3.00842C10.4115 2.97915 10.3252 2.94914 10.2298 2.95061C10.1819 2.95136 10.1291 2.95942 10.0739 2.96813C10.0251 2.97579 9.97271 2.9839 9.91914 2.98784C9.86914 2.99148 9.75892 2.972 9.61758 2.94754C9.53053 2.93244 9.43127 2.91545 9.3273 2.9007C9.05058 2.90497 8.77446 2.91 8.50044 2.91648C8.44306 2.93751 8.39237 2.96561 8.35246 3.00239C8.32378 3.02878 8.29932 3.0606 8.2743 3.09314C8.2398 3.13742 8.20434 3.18322 8.15674 3.21941C8.11983 3.24769 8.07588 3.25846 8.04713 3.24594C8.0337 3.24009 8.02353 3.22934 8.0143 3.21962C8.00373 3.20848 7.9943 3.19858 7.98264 3.19869C7.97419 3.19879 7.96557 3.20644 7.95442 3.2157C7.93678 3.23048 7.9139 3.24957 7.87989 3.24989C7.75355 3.25109 7.61025 3.24433 7.4726 3.23941C7.31931 3.23386 7.17402 3.23087 7.06129 3.24149C7.02294 3.24516 6.97561 3.24596 6.93028 3.24474C6.81956 3.24287 6.69403 3.23219 6.56873 3.2242C6.44076 3.21596 6.31503 3.21061 6.21112 3.217C6.10863 3.22328 6.00828 3.25613 5.91705 3.29014C5.80683 3.33102 5.71023 3.37342 5.62147 3.37264C5.60329 3.37252 5.57395 3.34855 5.5368 3.31914C5.51042 3.29833 5.47931 3.27502 5.44627 3.25536C5.34259 3.29047 5.24639 3.32898 5.1587 3.37092C5.15757 3.37626 5.15642 3.3817 5.15535 3.38721C5.15534 3.38733 5.15534 3.38744 5.15534 3.38756C5.1274 3.51473 5.12748 3.67009 4.98055 3.6843C4.94217 3.68892 4.90109 3.67435 4.86309 3.66237C4.82579 3.65066 4.79154 3.64128 4.76725 3.65615C4.73973 3.67304 4.72805 3.71475 4.71708 3.76058C4.71203 3.78173 4.70709 3.80379 4.7003 3.82521C4.85559 3.63315 4.79844 3.70471 4.81013 3.69779C4.80641 3.70902 4.79506 3.72553 4.77419 3.7456C4.77024 3.74901 4.76586 3.75287 4.7613 3.75718C4.71658 3.80132 4.64884 3.87533 4.54677 3.94526C4.41967 4.2197 4.29166 4.51107 4.16569 4.80004C3.95552 5.28396 3.74747 5.77242 3.55474 6.25996C3.46081 6.49717 3.30602 6.70085 3.11628 6.83508C2.92646 6.96777 2.71673 7.02579 2.51856 6.98602C2.32019 6.94909 2.15004 6.79853 2.05078 6.56912C1.9515 6.33962 1.93089 6.05939 1.98718 5.79304C2.07933 5.35908 2.17954 4.93307 2.28853 4.50813C2.29191 4.4851 2.29545 4.46207 2.2992 4.43928C2.32753 4.26847 2.32592 4.10008 2.32539 3.93127C2.32542 3.8921 2.32558 3.85261 2.32595 3.81383Z" fill="#B6BB79"/>
<path d="M19.3163 2.01401C19.4151 1.86831 19.6684 1.79465 19.7958 1.74935C19.7982 1.7485 19.8005 1.74764 19.8029 1.74679C19.8333 1.73629 19.8604 1.72288 19.8917 1.7068C19.945 1.67911 20.0072 1.64684 20.1321 1.59409C20.2332 1.54 20.3536 1.48632 20.4906 1.44156C20.6187 1.37857 20.744 1.32883 20.8645 1.28838C21.4739 1.09206 21.9747 1.06139 22.4683 1.03993C22.7399 1.04369 23.432 0.918409 23.9719 0.91176C23.9851 0.909611 23.9991 0.907366 24.0124 0.905242C24.1693 0.880051 24.3496 0.855141 24.5127 0.845231C24.5552 0.84396 24.6035 0.842418 24.6515 0.846228C24.8059 0.857635 24.9712 0.843566 25.1078 0.835994C25.3232 0.786582 25.5749 0.725694 25.8395 0.687791C26.631 0.61646 27.0461 0.693341 27.6276 0.678968C27.6391 0.678936 27.6507 0.678892 27.6624 0.678835C27.8987 0.677769 28.1357 0.676902 28.3677 0.673099C28.5929 0.66946 28.8175 0.664285 29.0417 0.657272C29.1726 0.635491 29.2961 0.610095 29.4112 0.586738C29.5726 0.55392 29.7166 0.52514 29.8353 0.515951C30.1214 0.493779 30.4453 0.531511 30.6855 0.560004C30.7249 0.564656 30.7619 0.569071 30.796 0.572914C30.9871 0.561234 31.1782 0.548889 31.3691 0.536438C31.3818 0.544614 31.3946 0.553135 31.4075 0.561869C31.5691 0.670889 31.7694 0.671746 32.0835 0.673758C32.2201 0.674633 32.3799 0.67581 32.566 0.686104C32.5731 0.686504 32.5801 0.68704 32.5867 0.6877C32.7016 0.698172 32.7602 0.739734 32.8099 0.774041C32.8252 0.784798 32.8395 0.794886 32.8538 0.803179C32.905 0.83169 32.9587 0.805617 33.0262 0.775853C33.1123 0.73727 33.2193 0.691877 33.3514 0.753426C33.7691 0.951524 33.9785 0.907035 34.1657 0.881312C34.2188 0.873934 34.27 0.869468 34.3191 0.875255C34.4781 0.891433 34.69 1.03481 34.8058 1.17746C34.8649 1.24689 34.9853 1.33302 35.0723 1.37639L35.2015 1.51598C35.252 1.56801 35.3052 1.61986 35.3547 1.66666C35.4074 1.71646 35.4559 1.79857 35.5081 1.89961C35.5621 2.00458 35.6201 2.12859 35.6934 2.26948C35.7079 2.29746 35.7216 2.3251 35.7344 2.35235L35.7469 2.3958C35.8645 2.743 35.8945 2.80769 35.9379 2.93412C35.9501 2.96815 35.9614 3.00061 35.9727 3.03153C36.0088 3.13191 36.0462 3.25671 36.0841 3.38264C36.1295 3.53364 36.1759 3.68636 36.2216 3.8003C36.2533 4.11096 36.2804 4.42328 36.3114 4.72479C36.3272 4.87944 36.2689 5.04039 36.1459 5.17096C36.0228 5.3027 35.8455 5.39054 35.6566 5.47261C35.4699 5.56207 35.2473 5.53812 35.0686 5.45301C34.8887 5.36699 34.7615 5.22281 34.7109 5.06183C34.6095 4.73774 34.5159 4.4185 34.4301 4.09853C34.3257 3.70908 34.2344 3.31672 34.1648 2.92916C34.1572 2.88423 34.1327 2.76091 34.1441 2.80718L34.1586 2.85771C34.1253 2.74724 34.0614 2.60397 33.9854 2.47039C33.9752 2.45249 33.9649 2.43463 33.9543 2.41693C33.945 2.40924 33.9356 2.40163 33.9263 2.39413L34.0983 2.58001C33.8856 2.46497 33.8601 2.5088 33.7792 2.48675C33.7184 2.47566 33.6703 2.43288 33.6228 2.39643C33.5901 2.37143 33.5572 2.34945 33.52 2.34407C33.4997 2.34114 33.4714 2.33876 33.436 2.33642C33.2932 2.32583 33.026 2.32355 32.7649 2.26572C32.7032 2.25185 32.6376 2.23254 32.566 2.21142C32.5004 2.19267 32.4299 2.17187 32.3633 2.15158C32.1582 2.08976 31.9683 2.03231 31.8709 2.04803C31.7005 2.07565 31.5065 2.04828 31.3351 2.02423C31.1715 2.00128 31.0284 1.98142 30.9463 2.01499C30.8489 2.05513 30.7659 2.03773 30.6425 2.01208C30.5572 1.99431 30.4522 1.97263 30.3095 1.96342C30.1448 1.9528 30.0284 1.92367 29.9294 1.89897C29.79 1.86422 29.6853 1.83821 29.5289 1.88579C29.3553 1.93865 29.1749 1.97282 29.032 1.95696C28.9677 1.94973 28.8925 1.95208 28.8162 1.95468C28.7136 1.95812 28.6063 1.96196 28.509 1.94434C28.4271 1.92985 28.362 1.89096 28.3012 1.85669C28.2825 1.84599 28.2648 1.83579 28.2476 1.82686C28.1842 1.8286 28.1193 1.83077 28.0558 1.83353C28.0455 1.84022 28.0347 1.84762 28.0235 1.85526C27.9682 1.8936 27.8985 1.9408 27.8147 1.96622C27.7794 1.97665 27.746 1.98323 27.7141 1.98694C27.6144 1.99792 27.5242 1.98464 27.4268 1.97093C27.3264 1.95646 27.2212 1.9414 27.1021 1.95324C27.0204 1.96134 26.9293 1.98153 26.8389 2.00175C26.7038 2.03179 26.5743 2.06184 26.4841 2.05218C26.4511 2.0485 26.4207 2.0253 26.3922 2.00227C26.392 2.00213 26.3919 2.00199 26.3918 2.00184C26.3899 2.00028 26.388 1.99875 26.3859 1.99721C26.279 2.01441 26.2066 2.03152 26.1439 2.05673C26.0523 2.08788 25.9608 2.12419 25.8654 2.16518C25.8504 2.17653 25.8351 2.18796 25.8198 2.19936C25.7454 2.255 25.6692 2.3122 25.6241 2.3719C25.5754 2.43573 25.423 2.51926 25.2125 2.60595C25.0756 2.66232 24.9124 2.71564 24.7672 2.75782C24.7344 2.76743 24.7013 2.7704 24.6677 2.769C24.6352 2.76506 24.603 2.75167 24.5705 2.73811C24.5196 2.71766 24.4686 2.69686 24.4154 2.70868C24.3895 2.71453 24.3607 2.72838 24.3316 2.74315C24.3064 2.75611 24.2779 2.77016 24.2494 2.78019C24.2227 2.78951 24.1589 2.78309 24.0782 2.77616C24.0273 2.77202 23.9707 2.76764 23.911 2.76656C23.7603 2.80639 23.6109 2.84954 23.456 2.89541C23.427 2.92437 23.4043 2.95903 23.3885 3.00083C23.3775 3.03075 23.3697 3.06543 23.3616 3.10093C23.3507 3.14918 23.339 3.19916 23.317 3.2416C23.2997 3.27479 23.2739 3.29186 23.2522 3.28396C23.2421 3.28029 23.233 3.27131 23.2248 3.26319C23.2154 3.2539 23.2071 3.24563 23.1992 3.24748C23.1934 3.24886 23.1889 3.2577 23.1832 3.26841C23.174 3.28555 23.1625 3.30757 23.1376 3.31309C23.0464 3.3332 22.9297 3.34834 22.7963 3.35889C22.7597 3.36176 22.722 3.36424 22.684 3.36629C22.6162 3.36806 22.5539 3.37171 22.5021 3.38173C22.4257 3.39654 22.3137 3.38076 22.2046 3.36747C22.1285 3.35814 22.0538 3.35008 21.9929 3.35277C21.9334 3.35535 21.8773 3.38289 21.8274 3.41009C21.7672 3.44279 21.7165 3.47481 21.6654 3.4635C21.6549 3.46125 21.6352 3.43449 21.6097 3.40149C21.5915 3.37815 21.5709 3.35146 21.5486 3.3281C21.4931 3.34669 21.4445 3.3648 21.4036 3.38166C21.4041 3.38617 21.4045 3.39075 21.405 3.3954C21.405 3.3955 21.405 3.3956 21.4051 3.3957C21.4127 3.47276 21.4355 3.56536 21.4246 3.58773C21.3949 3.61257 21.3557 3.63043 21.3044 3.63674C21.2561 3.64257 21.2121 3.62472 21.173 3.60834C21.1341 3.59242 21.1004 3.5775 21.0693 3.58845C21.0345 3.60064 21.0075 3.64013 20.9774 3.68284C20.9356 3.7426 20.8855 3.80982 20.8055 3.81423C20.8 3.81457 20.794 3.81488 20.7879 3.8153C20.7305 3.81861 20.6444 3.82313 20.547 3.7926C20.3382 3.87217 20.1318 3.93675 19.9299 3.99275C19.5911 4.08666 19.2605 4.15872 18.9291 4.22672C18.7681 4.25934 18.5918 4.21914 18.4348 4.11187C18.28 4.00362 18.1569 3.83863 18.0933 3.64696C18.0296 3.45528 18.0294 3.24982 18.0847 3.07096C18.1424 2.89147 18.2517 2.75425 18.3903 2.68237C18.6173 2.56525 18.8394 2.44674 19.0542 2.32806C19.0646 2.31951 19.0751 2.3111 19.0854 2.30298C19.1635 2.24207 19.2213 2.1575 19.278 2.07228C19.2905 2.05293 19.3035 2.03326 19.3163 2.01401Z" fill="#B6BB79"/>
<path d="M22.633 15.484C22.6182 15.337 22.7761 15.1858 22.8652 15.1025C22.8668 15.101 22.8684 15.0995 22.8699 15.0979C22.8909 15.0783 22.9086 15.0568 22.9287 15.0325C22.976 14.9756 23.0418 14.8946 23.226 14.762C23.2631 14.7119 23.3041 14.6595 23.3455 14.6096C23.4733 14.4564 23.6117 14.3063 23.7918 14.1468C23.885 14.0654 23.9836 13.983 24.135 13.8845C24.2131 13.835 24.3012 13.7811 24.443 13.7222C24.588 13.6715 24.7968 13.5679 25.2156 13.6391C25.6178 13.7253 25.8584 13.9647 25.9772 14.1124C26.1019 14.27 26.1581 14.391 26.2046 14.496C26.2922 14.7041 26.3275 14.8579 26.3617 15.001C26.3652 15.0085 26.3687 15.016 26.3722 15.0237C26.4404 15.1723 26.5131 15.324 26.5189 15.4229C26.5263 15.5502 26.5213 15.6278 26.5164 15.6904C26.5302 15.7393 26.5435 15.7807 26.5539 15.8128C26.5604 15.8472 26.5571 15.8477 26.4847 15.8275C26.4149 15.8028 26.2602 15.8175 26.2229 15.8519C26.1506 15.9199 26.3008 15.845 26.3912 15.7289C26.4677 15.6408 26.5432 15.5303 26.6133 15.4098C26.6781 15.2984 26.7395 15.1787 26.8019 15.051C26.8224 14.969 26.8399 14.8839 26.8594 14.8021C26.8906 14.6834 26.9123 14.5783 27.0173 14.4295C27.0543 14.382 27.0963 14.3207 27.2201 14.228C27.5218 14.0085 27.8705 14.0341 28.0467 14.0877C28.2374 14.1437 28.356 14.2237 28.4627 14.312C28.5388 14.3786 28.5978 14.4456 28.6448 14.506C28.6728 14.5421 28.6966 14.5761 28.7172 14.607C28.8571 14.7586 28.954 14.905 29.0365 15.0385C29.0339 15.0514 29.0309 15.0644 29.0277 15.0776C28.9867 15.2381 29.0454 15.3786 29.1168 15.5411C29.1407 15.6021 29.2021 15.6994 29.1551 15.6458C29.155 15.6457 29.1549 15.6456 29.1548 15.6455C29.1416 15.6378 29.0946 15.6552 29.0668 15.6793C29.0582 15.6861 29.0506 15.6928 29.044 15.6981C29.0221 15.7167 29.0248 15.6868 29.0158 15.6501C29.0081 15.6023 28.9709 15.5511 28.9828 15.5981C29.0777 15.7358 29.1876 15.5722 29.2013 15.4771C29.2102 15.4472 29.2186 15.4198 29.2323 15.3998C29.2757 15.3359 29.3926 15.3153 29.5062 15.3174C29.5972 15.3216 29.7211 15.2071 29.9547 15.1185C30.0423 15.0891 30.1962 15.0642 30.4283 15.1369C30.5077 15.163 30.5899 15.202 30.6679 15.2542C30.8749 15.4052 30.9112 15.4902 30.9675 15.538C31.0721 15.6525 31.1048 15.5591 30.8832 15.4159L30.226 15.3873C30.2468 15.3685 30.2654 15.352 30.283 15.3364C30.2967 15.3242 30.31 15.3126 30.3234 15.3005C30.3657 15.2625 30.4249 15.2189 30.4922 15.1706C30.5723 15.113 30.6649 15.0489 30.7421 14.9883C30.9821 14.9258 31.2564 14.7808 31.8362 14.8623C31.9799 14.8887 32.1299 14.9641 32.2325 15.0669L32.223 15.0621C32.1123 15.0575 32.0509 15.1187 32.0419 15.1944C32.0281 15.347 32.1021 15.5462 32.0954 15.7519C32.0896 15.9565 32.0766 16.1606 31.9349 16.3029C31.8614 16.3725 31.7305 16.4205 31.558 16.3847C31.5562 16.433 31.5921 16.4723 31.6196 16.4835C31.7358 16.5147 31.6021 16.5548 31.4617 16.6556C31.3053 16.755 31.1056 16.8833 30.8389 16.9916L30.3045 17.088L30.1331 16.9608C29.9353 16.8629 29.8369 16.7545 29.7697 16.68C29.6759 16.5703 29.6372 16.502 29.6158 16.4706C29.6071 16.4428 29.5644 16.4429 29.7548 16.5897C29.955 16.7262 30.1704 16.6993 30.201 16.6864C30.2125 16.6832 30.2186 16.6805 30.2215 16.6786C30.2529 16.7184 30.1489 16.8168 30.0678 16.8791C29.9974 16.9309 29.9156 16.9424 29.8427 16.9517C29.7919 16.9584 29.7448 16.9645 29.7005 16.9859C29.677 16.9972 29.6433 17.0147 29.5998 17.0352C29.5091 17.0761 29.3747 17.1389 29.1496 17.1672C28.9327 17.1992 28.5694 17.1536 28.3138 16.9678C28.1809 16.8759 28.0779 16.7582 28.0049 16.6392C27.9313 16.5275 27.9041 16.444 27.884 16.3739C27.8271 16.1438 27.8448 16.0208 27.8017 15.9666C27.7322 15.8772 27.7141 15.7705 27.698 15.6888C27.6829 15.6106 27.6693 15.5542 27.6266 15.5526C27.576 15.5513 27.5787 15.5282 27.5844 15.4985C27.587 15.4865 27.5905 15.474 27.5939 15.4647C27.6071 15.4665 27.618 15.4676 27.6375 15.4731C27.6741 15.488 27.8814 15.5016 28.0271 15.3626C28.0341 15.3562 28.04 15.3502 28.0451 15.3447C28.124 15.2193 28.0087 15.3024 28.0231 15.3842C28.0217 15.4911 27.9982 15.6063 27.94 15.6786C27.913 15.7127 27.8923 15.7548 27.869 15.8015C27.839 15.8619 27.8058 15.9274 27.7557 15.9772C27.7147 16.0177 27.6564 16.0384 27.605 16.0557C27.5889 16.0612 27.5736 16.0664 27.5595 16.0719C27.5367 16.1107 27.5134 16.15 27.4898 16.1894C27.4912 16.1992 27.493 16.2096 27.4947 16.2205C27.5031 16.2757 27.5129 16.3435 27.4927 16.4121C27.4615 16.5193 27.3825 16.5869 27.2934 16.6542C27.2224 16.7078 27.1468 16.7614 27.0615 16.8442C27.0021 16.9011 26.9327 16.9753 26.8341 17.0467C26.6951 17.1543 26.4569 17.2371 26.2855 17.2095C26.2213 17.2009 26.1719 17.1682 26.1282 17.1334C26.128 17.1332 26.1278 17.133 26.1277 17.1328C26.1247 17.1305 26.1217 17.1281 26.1188 17.1257C25.775 17.0596 25.5781 16.8776 25.4325 16.7369C25.4151 16.7196 25.3982 16.7022 25.3816 16.6846C25.3651 16.6736 25.3489 16.6625 25.3331 16.6514C25.2553 16.5963 25.1863 16.5416 25.1225 16.5166C25.0527 16.4896 24.9583 16.3741 24.8744 16.2591C24.8187 16.1836 24.7659 16.108 24.7152 16.0519C24.6857 16.0191 24.6951 15.9733 24.7057 15.9278C24.7154 15.885 24.7262 15.8424 24.7063 15.8088C24.6964 15.7921 24.679 15.7769 24.6605 15.761C24.6443 15.7469 24.6273 15.7328 24.6138 15.7161C24.6013 15.7009 24.5994 15.6569 24.5978 15.6049C24.5968 15.5724 24.5958 15.537 24.5928 15.5035C24.546 15.4329 24.4962 15.3737 24.4847 15.3846C24.4665 15.3981 24.4464 15.4208 24.4223 15.4512C24.4052 15.4732 24.3853 15.4999 24.3671 15.5294C24.3423 15.5692 24.3211 15.6155 24.3222 15.6674C24.3226 15.7076 24.3513 15.7464 24.385 15.7557C24.4005 15.76 24.4176 15.7588 24.4324 15.7572C24.4496 15.7554 24.4649 15.7535 24.4777 15.7615C24.487 15.7673 24.4931 15.7799 24.5019 15.7953C24.5158 15.8199 24.5379 15.8537 24.5905 15.8758C24.6454 15.8987 24.7103 15.9187 24.7789 15.9312C25.1371 15.988 25.2983 15.8959 25.3735 15.8661C25.4906 15.8059 25.4813 15.7914 25.4891 15.7955C25.4946 15.7993 25.4543 15.7944 25.4017 15.8052C25.3656 15.8121 25.325 15.8249 25.2951 15.8446C25.2667 15.8629 25.2525 15.902 25.2401 15.9394C25.2238 15.9858 25.2097 16.0298 25.1653 16.0431C25.1564 16.0456 25.1264 16.0328 25.0884 16.0171C25.0616 16.006 25.0306 15.9936 25.0005 15.9841C24.9683 16.023 24.9336 16.0636 24.8995 16.1025C24.9017 16.1066 24.9039 16.1108 24.9061 16.1151C24.9062 16.1151 24.9062 16.1152 24.9063 16.1153C24.9565 16.2121 25.0285 16.3405 24.9131 16.3575C24.8838 16.3617 24.8452 16.3494 24.8104 16.3385C24.7763 16.3277 24.7454 16.3185 24.7309 16.3272C24.7144 16.3371 24.7182 16.3664 24.7222 16.3986C24.7277 16.444 24.7344 16.4942 24.6862 16.5041C24.6829 16.5048 24.6794 16.5055 24.6757 16.5063C24.6411 16.5139 24.5892 16.5262 24.5099 16.517C24.4244 16.603 24.3387 16.686 24.2495 16.772C24.102 16.9137 23.9508 17.0556 23.8003 17.1996C23.7271 17.2691 23.5948 17.2975 23.4298 17.2723C23.2641 17.2477 23.0782 17.1753 22.9092 17.0648C22.7401 16.9544 22.5992 16.8131 22.5121 16.669C22.4246 16.526 22.4013 16.3893 22.4402 16.2911C22.5041 16.1309 22.5708 15.9688 22.6408 15.8096C22.6425 15.7998 22.6443 15.79 22.6463 15.7804C22.6612 15.7094 22.6502 15.6258 22.64 15.5416C22.6376 15.5223 22.6352 15.503 22.633 15.484Z" fill="#B6BB79"/>
<path d="M22.2586 8.99052C22.2909 8.88515 22.3951 8.90524 22.4559 8.91625C22.457 8.91642 22.458 8.91658 22.4591 8.91674C22.4732 8.9194 22.4857 8.91847 22.5004 8.91731C22.5356 8.91459 22.5812 8.91102 22.6911 8.95561C22.7194 8.94874 22.7475 8.94306 22.7756 8.93877C23.0875 8.89145 23.4206 8.93609 23.7658 9.02908C23.7701 9.02855 23.7744 9.02801 23.7788 9.02747C23.865 9.01673 23.9757 9.00721 24.0443 9.04643C24.1311 9.09607 24.1868 9.14312 24.2345 9.18423C24.5094 9.28966 24.8001 9.43181 25.0503 9.57777C25.1274 9.62196 25.1991 9.66414 25.2547 9.69185C25.3022 9.71571 25.3365 9.72788 25.3466 9.72584L25.0801 9.68958C25.0845 9.68888 25.0889 9.68816 25.0932 9.68742C25.127 9.66385 25.1576 9.63639 25.1867 9.61079C25.2276 9.57482 25.2628 9.54275 25.294 9.5305C25.3677 9.50115 25.4589 9.52831 25.5265 9.54812C25.5374 9.55138 25.5482 9.5544 25.5579 9.55698C25.6084 9.5384 25.6592 9.51864 25.7096 9.49847C25.714 9.50607 25.7185 9.514 25.7231 9.52214C25.78 9.62371 25.8351 9.61606 25.9231 9.6038C25.9612 9.59849 26.0062 9.59226 26.0599 9.59382C26.095 9.59476 26.1174 9.63498 26.1358 9.6678C26.1412 9.67746 26.1462 9.68649 26.1512 9.69367C26.1682 9.71831 26.1796 9.68826 26.193 9.65278C26.2103 9.60678 26.2321 9.55142 26.2733 9.59463C26.405 9.73233 26.4451 9.62547 26.4784 9.54429C26.488 9.52051 26.4967 9.49903 26.5066 9.48666C26.539 9.44648 26.5937 9.4787 26.6372 9.52602C26.6711 9.56352 26.7307 9.51979 26.7783 9.46705C26.7963 9.44709 26.8215 9.44545 26.8526 9.44395C26.8844 9.44241 26.9218 9.44107 26.9626 9.41942C27.0671 9.36486 27.1296 9.34175 27.1809 9.32363C27.1955 9.3185 27.209 9.31394 27.2231 9.30927C27.2675 9.29452 27.3239 9.28488 27.3841 9.27783C27.4567 9.26933 27.5348 9.26499 27.6 9.25488C27.6488 9.27435 27.6985 9.29653 27.7476 9.32127C27.6928 9.32549 27.6838 9.35117 27.7036 9.37293C27.7181 9.39031 27.7484 9.48326 27.7769 9.63555C27.8053 9.788 27.8252 9.98657 27.8249 10.1924C27.8246 10.3983 27.8076 10.5969 27.7716 10.7491C27.7357 10.9011 27.6795 10.9935 27.6067 11.0057C27.5124 11.0206 27.393 11.0322 27.2326 11.0036C27.2272 11.013 27.2149 11.02 27.2016 11.0265C27.1558 11.049 27.0972 11.0645 27.0228 11.0631C26.9711 11.0621 26.9121 11.0585 26.8481 11.053C26.8414 11.0524 26.8347 11.0518 26.8281 11.0511C26.7766 11.1048 26.7242 11.1553 26.6849 11.1752C26.6524 11.1917 26.625 11.1671 26.6007 11.1463C26.5844 11.1319 26.5696 11.1192 26.5561 11.1228C26.5489 11.1248 26.5389 11.1289 26.5273 11.1339C26.4794 11.1543 26.3964 11.1897 26.3094 11.15C26.2714 11.1323 26.2237 11.0943 26.1785 11.058C26.1132 11.0062 26.0521 10.9579 26.0265 10.9779C25.9812 11.013 25.9223 10.9944 25.8694 10.9779C25.82 10.9621 25.7752 10.9483 25.7555 10.9849C25.7316 11.0286 25.7048 11.0147 25.6662 10.9938C25.6395 10.9793 25.606 10.9616 25.5632 10.9573C25.5139 10.9523 25.4761 10.927 25.445 10.9053C25.4008 10.8748 25.3674 10.8518 25.3253 10.903C25.2778 10.9599 25.2266 10.9975 25.1822 10.984C25.179 10.983 25.1758 10.9823 25.1725 10.9818L24.9123 10.9464C24.8859 10.9326 24.856 10.9226 24.8286 10.9127C24.7848 10.897 24.7452 10.8811 24.7233 10.8494C24.7048 10.823 24.7047 10.7782 24.7048 10.7387C24.7049 10.7264 24.7048 10.7146 24.7048 10.7042C24.6886 10.6967 24.6722 10.6893 24.6572 10.6833C24.652 10.6879 24.6464 10.6931 24.6406 10.6984C24.6113 10.7252 24.5766 10.7586 24.5498 10.771C24.5074 10.7906 24.4954 10.761 24.4809 10.7295C24.4694 10.7049 24.4571 10.6796 24.4328 10.6784C24.4165 10.6777 24.3936 10.6873 24.3727 10.6978C24.3403 10.7131 24.3112 10.7298 24.2969 10.7108C24.2914 10.7037 24.2921 10.6781 24.2919 10.6524C24.292 10.6522 24.292 10.6521 24.292 10.6519C24.292 10.6502 24.2919 10.6485 24.2919 10.6467C24.2423 10.6549 24.1929 10.6674 24.1428 10.6827C24.1378 10.6885 24.1327 10.6943 24.1277 10.6999C24.1038 10.7276 24.0815 10.755 24.0644 10.7956C24.0453 10.8396 24.0116 10.863 23.9728 10.8887C23.9484 10.9055 23.9235 10.9233 23.902 10.948C23.8892 10.9624 23.8795 10.9362 23.8683 10.9093C23.858 10.8842 23.8467 10.8585 23.8337 10.8647C23.8272 10.8678 23.82 10.8785 23.8124 10.8899C23.8055 10.9 23.7992 10.9107 23.7921 10.9173C23.7856 10.9234 23.771 10.9094 23.751 10.8918C23.7387 10.8809 23.724 10.8688 23.7089 10.8589C23.672 10.8761 23.6315 10.8935 23.5935 10.9102C23.5867 10.9333 23.5815 10.9631 23.5785 11.0012C23.5763 11.0285 23.5751 11.061 23.5739 11.0943C23.5723 11.1396 23.5707 11.1864 23.5669 11.2239C23.5638 11.2532 23.5587 11.2652 23.5537 11.2535C23.5514 11.248 23.5491 11.2376 23.547 11.2281C23.5446 11.2173 23.5425 11.2077 23.5408 11.2081C23.5396 11.2084 23.539 11.2163 23.5382 11.2258C23.5369 11.2409 23.5352 11.2605 23.5303 11.2616C23.5129 11.2656 23.4927 11.2611 23.4719 11.2569C23.4489 11.2522 23.4252 11.248 23.4079 11.2557C23.3893 11.2642 23.3581 11.2387 23.3251 11.2137C23.3025 11.1962 23.2775 11.1793 23.2598 11.1733C23.2417 11.1676 23.2258 11.1859 23.2104 11.2037C23.1918 11.2252 23.1738 11.2461 23.1522 11.2237C23.1479 11.2192 23.1387 11.1889 23.1272 11.1511C23.1193 11.1242 23.1101 11.0936 23.1006 11.0655C23.0784 11.0688 23.0556 11.0711 23.0322 11.0725C23.0321 11.0768 23.032 11.0812 23.0318 11.0857C23.0318 11.0858 23.0318 11.0859 23.0318 11.086C23.029 11.1873 23.0252 11.3259 22.9765 11.2519C22.9641 11.2331 22.952 11.1965 22.9409 11.1636C22.9301 11.1313 22.9203 11.1024 22.9125 11.0973C22.9036 11.0916 22.8982 11.1136 22.8924 11.1375C22.8842 11.1711 22.8751 11.2086 22.8534 11.1792C22.8519 11.1772 22.8503 11.175 22.8487 11.1728C22.8331 11.1519 22.809 11.1213 22.7795 11.0561C22.7274 11.0471 22.673 11.0358 22.6164 11.0232C22.5256 11.0015 22.4282 10.9766 22.3339 10.952C22.2879 10.9398 22.2261 10.8569 22.1603 10.7167C22.0945 10.5762 22.0305 10.3908 21.983 10.1945C21.9354 9.99819 21.9078 9.80407 21.9056 9.64842C21.9033 9.49297 21.9267 9.39009 21.968 9.35784C22.0334 9.30607 22.1083 9.2528 22.177 9.20448C22.1802 9.19953 22.1834 9.19471 22.1866 9.19014C22.2097 9.15635 22.2287 9.09437 22.2462 9.03273C22.2503 9.01856 22.2544 9.00436 22.2586 8.99052Z" fill="#B6BB79"/>
<path d="M9.37175 9.69702C9.40719 9.5961 9.49237 9.62671 9.54314 9.64283C9.54405 9.64308 9.54495 9.64334 9.54586 9.6436C9.55763 9.64745 9.56832 9.64758 9.58078 9.64763C9.61099 9.64765 9.64853 9.64817 9.73915 9.69926C9.76309 9.69403 9.78687 9.68982 9.81052 9.68682C10.0669 9.65425 10.3308 9.69602 10.5988 9.74456C10.6018 9.74349 10.6049 9.7424 10.608 9.7413C10.6684 9.71998 10.7427 9.6928 10.7986 9.71735C10.8694 9.74866 10.9189 9.78056 10.9616 9.80799C11.1739 9.84065 11.3864 9.85781 11.588 9.82684C11.6525 9.81676 11.7129 9.80285 11.7756 9.78237C11.8327 9.76377 11.8889 9.74162 11.9489 9.71545C11.9776 9.68365 12.0049 9.64819 12.0338 9.61453C12.0726 9.56778 12.1151 9.5245 12.1579 9.50285C12.2117 9.4759 12.2823 9.46193 12.3631 9.45827C12.526 9.43955 12.6812 9.47161 12.783 9.51001C12.8172 9.52261 12.8476 9.5359 12.8735 9.54828C13.0283 9.58674 13.136 9.63774 13.2229 9.67818C13.2236 9.68838 13.2241 9.69884 13.2243 9.70946C13.226 9.84094 13.2863 9.88683 13.3606 9.9452C13.3924 9.97009 13.4257 9.99632 13.4535 10.028C13.4712 10.0483 13.4548 10.0891 13.4424 10.1231C13.4387 10.1331 13.4353 10.1424 13.433 10.1503C13.4252 10.1773 13.4503 10.1601 13.4778 10.1381C13.514 10.1098 13.5523 10.0722 13.5397 10.1199C13.5057 10.2748 13.5659 10.1852 13.5813 10.1088C13.5869 10.0867 13.5904 10.0663 13.5909 10.0547C13.5914 10.0437 13.5895 10.0386 13.5863 10.0384C13.6404 10.0483 13.6889 10.0893 13.7181 10.1341C13.7519 10.1841 13.8392 10.1706 13.9001 10.1385C13.9233 10.1264 13.9451 10.1335 13.9642 10.1395C13.9837 10.1457 14.0018 10.1508 14.01 10.1308C14.0293 10.0776 13.9261 10.0339 13.8392 10.0299C13.8135 10.028 13.7874 10.0284 13.7607 10.0303C13.7371 10.032 13.7117 10.0358 13.6853 10.042L13.4386 10.1989C13.3883 10.2285 13.3627 10.2456 13.3462 10.2494C13.3195 10.256 13.3156 10.2304 13.3056 10.1991C13.3376 10.176 13.3812 10.1321 13.4464 10.062C13.4934 10.014 13.5304 9.95959 13.6758 9.82892C13.7275 9.78547 13.7987 9.73202 13.9251 9.68016C14.0474 9.62859 14.2601 9.58525 14.4599 9.63656C14.8741 9.76199 14.902 9.99051 14.8977 10.0867C14.8646 10.3025 14.6715 10.3903 14.4913 10.484C14.3094 10.5768 14.1052 10.6276 14.0168 10.768C13.9827 10.8297 13.968 10.9947 14.2683 11.1006C14.5943 11.1773 14.7721 11.0284 14.8158 11.0018C14.8932 10.9392 14.8907 10.949 14.8976 10.9641C14.9018 10.9944 14.8917 11.052 14.8662 11.1275C14.8306 11.2144 14.8076 11.3174 14.6185 11.5113L14.3735 11.6671C14.1555 11.7699 13.9143 11.7771 13.7691 11.7556C13.5269 11.7179 13.4345 11.6629 13.3744 11.6364C13.3685 11.6334 13.3631 11.6305 13.3583 11.6279C13.3004 11.6603 13.2874 11.7056 13.3007 11.7257C13.2968 11.7256 13.293 11.7254 13.2892 11.7253C13.1822 11.7198 13.1179 11.6718 13.0696 11.6314C13.0362 11.6033 13.0094 11.578 12.9774 11.5672C12.9602 11.5614 12.9365 11.5547 12.909 11.546C12.7948 11.512 12.6261 11.4387 12.5575 11.3248C12.5259 11.2743 12.5078 11.2048 12.4969 11.1429C12.4811 11.054 12.4782 10.9801 12.4498 10.9791C12.3998 10.9768 12.3882 10.9367 12.3884 10.9102C12.3883 10.8847 12.3988 10.8704 12.3933 10.9055C12.3872 10.9475 12.4134 10.9412 12.4579 10.9254C12.4891 10.9142 12.5337 10.8998 12.5911 10.8837C12.5953 10.8825 12.5994 10.8812 12.6033 10.8797C12.5901 10.8705 12.5671 10.8484 12.5457 10.8304C12.5121 10.8037 12.4816 10.7857 12.4596 10.8424C12.4358 10.9052 12.3993 10.9528 12.3565 10.9495C12.3367 10.9481 12.3168 10.9567 12.2964 10.9656C12.2682 10.9777 12.2398 10.99 12.2051 10.9815C12.1766 10.9744 12.146 10.9424 12.1177 10.9143C12.109 10.9056 12.1005 10.8972 12.0926 10.8901C12.0741 10.8965 12.0566 10.9029 12.038 10.91C12.0369 10.9171 12.0358 10.9249 12.0347 10.933C12.0282 10.9737 12.0223 11.023 12.0028 11.0525C11.9711 11.0996 11.9305 11.0884 11.8846 11.0771C11.8496 11.0681 11.8148 11.058 11.7803 11.0749C11.7573 11.0862 11.7352 11.1092 11.7116 11.1324C11.6756 11.167 11.6438 11.1997 11.6111 11.1926C11.5991 11.1898 11.5835 11.1679 11.5684 11.146C11.5684 11.1458 11.5683 11.1457 11.5682 11.1455C11.5672 11.144 11.5662 11.1426 11.5652 11.1411C11.5037 11.1764 11.4399 11.2135 11.3766 11.2508C11.372 11.2585 11.3673 11.2661 11.3627 11.2736C11.3405 11.31 11.3197 11.3451 11.3101 11.3904C11.2999 11.4395 11.254 11.4768 11.2072 11.5151C11.1764 11.5403 11.1417 11.5667 11.1185 11.5972C11.1043 11.6152 11.083 11.593 11.061 11.5701C11.0405 11.5488 11.0195 11.5268 11.0027 11.5365C10.9944 11.5413 10.9864 11.5537 10.9788 11.5668C10.9719 11.5783 10.9646 11.5906 10.9561 11.5988C10.9481 11.6065 10.9252 11.5964 10.8957 11.5835C10.8774 11.5756 10.8565 11.5666 10.835 11.56C10.7878 11.5847 10.7401 11.6086 10.6902 11.6314C10.6829 11.6556 10.6787 11.6861 10.6777 11.7245C10.6769 11.7521 10.6777 11.7848 10.6785 11.8183C10.6796 11.8638 10.6806 11.9108 10.6775 11.9489C10.6752 11.9787 10.6687 11.9914 10.6612 11.9804C10.6577 11.9753 10.654 11.9651 10.6507 11.956C10.6469 11.9455 10.6435 11.9361 10.6413 11.9368C10.6397 11.9372 10.6392 11.9452 10.6386 11.9548C10.6376 11.9702 10.6362 11.99 10.6297 11.9918C10.6055 11.9982 10.5751 11.9966 10.5472 11.9947C10.5164 11.9925 10.486 11.9903 10.4631 11.9995C10.4378 12.0098 10.3941 11.987 10.3531 11.9637C10.3246 11.9475 10.2959 11.9313 10.2723 11.9263C10.2492 11.9213 10.2283 11.9403 10.2077 11.9587C10.1826 11.9809 10.16 12.002 10.1353 11.9797C10.1303 11.9752 10.1209 11.9448 10.1092 11.9069C10.1009 11.88 10.0914 11.8493 10.0814 11.8211C10.0541 11.8245 10.0264 11.8267 9.99827 11.8278C9.9978 11.8321 9.99732 11.8365 9.99684 11.841C9.99683 11.8411 9.99683 11.8412 9.99683 11.8413C9.98574 11.9429 9.97105 12.0818 9.91851 12.0062C9.90513 11.987 9.89379 11.9499 9.8836 11.9166C9.8736 11.8838 9.86467 11.8545 9.85594 11.8491C9.84602 11.843 9.83763 11.8648 9.82835 11.8885C9.81535 11.9218 9.80058 11.959 9.77809 11.9284C9.77656 11.9263 9.7749 11.924 9.77319 11.9218C9.75652 11.9001 9.73392 11.8678 9.70703 11.8007C9.64785 11.7884 9.5874 11.7729 9.52584 11.7552C9.42854 11.7252 9.32378 11.6897 9.22668 11.653C9.17875 11.635 9.12582 11.5443 9.08021 11.3959C9.03454 11.2473 9.00015 11.0541 8.98373 10.8528C8.96729 10.6516 8.96971 10.4556 8.98861 10.3015C9.00757 10.1477 9.04141 10.0497 9.08243 10.0238C9.14752 9.98206 9.21918 9.93939 9.28467 9.89977C9.2879 9.89524 9.29116 9.89085 9.29441 9.8867C9.31846 9.8559 9.33806 9.7968 9.3581 9.73754C9.36265 9.72393 9.36718 9.71029 9.37175 9.69702Z" fill="#B6BB79"/>
<path d="M7.50897 13.8738C7.56859 13.7755 7.69419 13.812 7.76289 13.8322C7.76416 13.8325 7.76543 13.8328 7.7667 13.8332C7.78317 13.8379 7.7986 13.8389 7.81657 13.84C7.85862 13.8425 7.91855 13.8458 8.04018 13.9052C8.07623 13.9023 8.11238 13.9004 8.14791 13.8999C8.53467 13.8949 8.94225 13.9696 9.38411 14.1088C9.38994 14.1089 9.39587 14.1089 9.40186 14.109C9.51552 14.1102 9.6656 14.119 9.7524 14.1709C9.86336 14.2365 9.93437 14.2961 9.99119 14.3474C10.3494 14.5155 10.671 14.7419 10.9478 14.949C10.9483 14.9493 10.9487 14.9497 10.9491 14.9501C10.9924 14.9874 11.0406 15.0173 11.0936 15.0387C11.1424 15.0584 11.195 15.0719 11.2516 15.0798C11.2888 15.0672 11.325 15.0489 11.3584 15.0312C11.4056 15.0062 11.4473 14.9824 11.4816 14.9766C11.5626 14.9627 11.6636 15.004 11.7507 15.0339C11.7649 15.0388 11.7782 15.0434 11.791 15.0474C11.8629 15.0368 11.9407 15.0251 12.0273 15.0153C12.0326 15.0236 12.0379 15.0323 12.0433 15.0413C12.1121 15.1536 12.1995 15.1545 12.3738 15.1819C12.4496 15.1948 12.5443 15.2136 12.6602 15.2635C12.7353 15.2963 12.7581 15.3549 12.7731 15.4008C12.7776 15.4144 12.7817 15.4272 12.7865 15.4384C12.8028 15.4767 12.8451 15.4678 12.8994 15.4624L12.7521 15.3954C12.7521 15.3953 12.7521 15.3953 12.7522 15.3953C12.7859 15.3596 12.8233 15.3155 12.8467 15.37C12.9275 15.5446 13.011 15.4525 13.0608 15.3817C13.0761 15.361 13.0897 15.3422 13.1023 15.3324C13.1428 15.3006 13.1889 15.343 13.2246 15.397C13.2527 15.4399 13.3218 15.4058 13.3731 15.358C13.3924 15.34 13.4174 15.3408 13.4465 15.3414C13.4768 15.342 13.5122 15.3425 13.5494 15.3214C13.6438 15.2681 13.6898 15.2398 13.7261 15.2173C13.7366 15.2109 13.7456 15.205 13.755 15.1988C13.7841 15.1792 13.8196 15.1618 13.8482 15.1437C13.8802 15.1231 13.9136 15.0967 13.8694 15.0821C13.8562 15.0891 13.838 15.095 13.7746 15.1246L13.9273 15.0743C14.0796 15.0535 13.9613 15.0904 13.9379 15.1192C13.9019 15.1498 13.898 15.1724 13.91 15.1805C13.9235 15.1911 14.0052 15.243 14.1323 15.3314C14.2592 15.4204 14.419 15.5405 14.5679 15.6827C14.7165 15.825 14.8435 15.9804 14.9097 16.1287C14.9759 16.2766 14.9734 16.4064 14.8943 16.4868C14.8269 16.5546 14.741 16.6288 14.6202 16.6961C14.5106 16.763 14.3119 16.8145 14.3449 16.8196L14.4749 16.7768C14.3748 16.8222 14.3315 16.8339 14.2891 16.8486C13.9967 16.9403 13.849 16.9583 13.6534 16.9645C13.5237 16.9662 13.3955 16.9583 13.2674 16.9419C13.2541 16.9403 13.241 16.9384 13.2279 16.9366C13.1166 16.9801 13.0007 17.0145 12.9189 17.0206C12.8514 17.0257 12.8065 16.9915 12.7688 16.9619C12.7428 16.9416 12.7201 16.9233 12.694 16.9209C12.68 16.9195 12.6606 16.9191 12.6369 16.9183C12.5616 16.9157 12.441 16.9085 12.3216 16.8564L12.0807 16.7467C12.0907 16.7478 12.1014 16.7454 12.1114 16.7384C12.1324 16.7244 12.1518 16.6841 12.1512 16.641C12.1521 16.5794 12.116 16.517 12.0912 16.5312C12.0487 16.5555 11.9962 16.526 11.9401 16.5008C11.887 16.4767 11.8342 16.4564 11.802 16.4895C11.7637 16.5291 11.7315 16.5114 11.6819 16.4847C11.6474 16.4661 11.6044 16.4434 11.5427 16.4315C11.4711 16.4175 11.4201 16.3845 11.3772 16.3559C11.3168 16.3154 11.2732 16.2844 11.1923 16.3203C11.1021 16.3601 11.0036 16.3746 10.9354 16.3403C10.9048 16.325 10.8669 16.3168 10.8274 16.3071C10.7753 16.2944 10.7196 16.2787 10.6771 16.2426C10.6418 16.2128 10.6245 16.1626 10.6102 16.118C10.6057 16.1041 10.6016 16.0908 10.5975 16.0789C10.5677 16.0663 10.5374 16.0529 10.5075 16.0393C10.4999 16.0427 10.4918 16.0466 10.4832 16.0505C10.4407 16.0703 10.3852 16.0923 10.3339 16.0888C10.3041 16.0867 10.2789 16.0778 10.2568 16.0646C10.2335 16.0509 10.2194 16.0254 10.2047 15.9993C10.1861 15.9671 10.1668 15.934 10.1301 15.9222C10.1051 15.9141 10.0724 15.9156 10.0399 15.9177C9.992 15.9209 9.94645 15.9263 9.92744 15.9017C9.92034 15.8925 9.92186 15.8659 9.92315 15.8394C9.92317 15.8393 9.92319 15.8391 9.92322 15.839C9.9233 15.8372 9.92337 15.8354 9.92345 15.8336C9.85291 15.8251 9.78274 15.8226 9.71287 15.8249C9.70552 15.8294 9.69817 15.8339 9.69093 15.8383C9.6555 15.8599 9.62211 15.8818 9.59519 15.9186C9.5659 15.9583 9.51574 15.9736 9.46247 15.9919C9.42746 16.0037 9.39136 16.0168 9.36005 16.0376C9.34165 16.0498 9.33058 16.022 9.31798 15.9934C9.30636 15.9667 9.29329 15.9393 9.27491 15.9434C9.2658 15.9455 9.25505 15.955 9.24356 15.9652C9.23345 15.9743 9.22275 15.9838 9.21196 15.9893C9.20176 15.9944 9.18284 15.9783 9.157 15.958C9.14119 15.9455 9.12182 15.9313 9.10233 15.9196C9.04626 15.9315 8.98961 15.9438 8.93081 15.9556C8.91794 15.9777 8.90658 16.0067 8.89699 16.0441C8.89012 16.071 8.88395 16.1032 8.87767 16.1361C8.86913 16.1809 8.86039 16.2272 8.84934 16.264C8.84071 16.2927 8.83129 16.304 8.82549 16.2918C8.82279 16.2861 8.82088 16.2754 8.81915 16.2658C8.81718 16.2548 8.8155 16.245 8.81305 16.2452C8.81128 16.2453 8.80923 16.2531 8.80672 16.2624C8.8027 16.2773 8.79752 16.2966 8.79033 16.2971C8.76376 16.299 8.73204 16.2921 8.70166 16.2855C8.6681 16.2782 8.63402 16.2712 8.6062 16.2768C8.57614 16.2831 8.53292 16.2541 8.48722 16.2255C8.45658 16.2055 8.42521 16.1857 8.39773 16.1777C8.37056 16.1698 8.34306 16.1861 8.31648 16.2019C8.28445 16.221 8.25294 16.2394 8.22533 16.2145C8.21995 16.2095 8.21289 16.1783 8.20394 16.1393C8.1976 16.1117 8.19026 16.0801 8.18196 16.051C8.14791 16.0515 8.11277 16.0508 8.07776 16.0491C8.07664 16.0534 8.07549 16.0577 8.07433 16.0622C8.07431 16.0623 8.0743 16.0624 8.07428 16.0625C8.04813 16.1625 8.01261 16.2993 7.9551 16.2193C7.94037 16.199 7.93083 16.161 7.92231 16.1269C7.91391 16.0934 7.90637 16.0634 7.8961 16.0573C7.88444 16.0503 7.87125 16.0713 7.85677 16.0942C7.83643 16.1262 7.81353 16.1621 7.78867 16.1298C7.78697 16.1276 7.78514 16.1251 7.78324 16.1227C7.7656 16.0997 7.74002 16.0657 7.71308 15.9968C7.63697 15.98 7.56179 15.9601 7.48505 15.9382C7.35787 15.9016 7.23061 15.8596 7.10226 15.8173C7.03869 15.7965 6.97988 15.703 6.93233 15.5522C6.88525 15.4013 6.85623 15.2065 6.85217 15.0046C6.84806 14.8027 6.86907 14.6071 6.90926 14.4543C6.94996 14.3017 7.00373 14.2057 7.06547 14.1821C7.16459 14.1441 7.26314 14.1059 7.36145 14.0705C7.36651 14.0661 7.37158 14.062 7.37663 14.058C7.41436 14.0288 7.4505 13.9711 7.48502 13.9133C7.49301 13.9 7.50098 13.8867 7.50897 13.8738Z" fill="#B6BB79"/>
<path d="M37.4975 10.6935C37.5943 10.9075 37.5548 11.3194 37.5331 11.5466C37.5327 11.5508 37.5324 11.5549 37.532 11.5591C37.5269 11.6122 37.5256 11.6643 37.5241 11.7232C37.5206 11.865 37.5159 12.0585 37.4542 12.4587C37.4548 12.4898 37.4553 12.5205 37.4558 12.5504C37.4571 12.6336 37.4582 12.7143 37.4592 12.795C37.4689 13.5333 37.4828 14.0103 37.5926 14.8778C37.6131 15.294 37.668 15.5768 37.7583 16.1953C37.7674 16.2799 37.7732 16.3599 37.7771 16.4366C37.7798 16.4552 37.7824 16.4743 37.7849 16.493C37.833 16.8592 37.8618 17.2391 37.847 17.4689C37.8427 17.5308 37.8385 17.5877 37.8345 17.6404C37.8234 17.8749 37.8038 18.0525 37.7829 18.2064C37.7767 18.4686 37.7638 18.7359 37.7155 19.0368C37.6836 19.3132 37.5131 19.7611 37.4351 19.8901C37.1879 20.4583 36.7621 20.7345 36.4189 20.9387C36.2081 21.0626 35.9575 21.1649 35.7357 21.2252C35.5748 21.2699 35.4474 21.2979 35.3866 21.321C35.2552 21.3701 35.1095 21.4391 34.9557 21.5156C34.7024 21.6418 34.4252 21.7867 34.1224 21.9121C33.9528 22.0017 33.7821 22.0848 33.6154 22.1528C33.4023 22.2403 33.1964 22.3027 33.0175 22.3336C33.0063 22.3359 32.9951 22.3381 32.9841 22.3403C32.6786 22.3982 32.2821 22.4474 31.9784 22.4889C31.9289 22.4957 31.8817 22.5022 31.8379 22.5086C31.6013 22.5761 31.3603 22.6478 31.0984 22.7141C31.079 22.7097 31.0595 22.7049 31.0398 22.6999C30.9309 22.6725 30.8145 22.667 30.6688 22.67C30.4102 22.6739 30.2693 22.6678 30.0242 22.6707C29.8441 22.6713 29.6373 22.6709 29.3941 22.6615C29.2384 22.6554 29.1579 22.6124 29.0934 22.5773C29.0742 22.567 29.0562 22.5573 29.0378 22.5495C28.9759 22.5228 28.9088 22.551 28.8315 22.5844C28.7299 22.6277 28.6095 22.6799 28.4498 22.6323C27.9413 22.4812 27.7181 22.5874 27.5514 22.6673C27.5025 22.6908 27.458 22.7122 27.4127 22.7244C27.3257 22.7479 27.2164 22.7464 27.1092 22.7322L27.1878 22.7257C27.1044 22.7252 27.0194 22.7171 26.9467 22.7044C26.8039 22.6807 26.5361 22.7433 26.3318 22.8037C26.2544 22.8269 26.1491 22.8321 26.0254 22.8362C25.8974 22.8405 25.7501 22.8436 25.593 22.8654C25.1961 22.9199 24.9857 22.9382 24.8172 22.9541C24.7691 22.9584 24.724 22.9623 24.6795 22.9662C24.5379 22.9788 24.364 22.9857 24.1876 22.9912C23.9771 22.9978 23.7649 23.0028 23.6044 23.0169C23.4247 22.9943 23.2461 22.9701 23.0759 22.9475C22.9894 22.9362 22.9081 22.9254 22.8313 22.9164C22.7666 22.9058 22.6538 22.9055 22.7214 22.8925L22.6637 22.8991C22.6 22.9003 22.5398 22.9 22.4813 22.8989C22.2396 22.8937 22.0312 22.8013 21.879 22.6499C21.7274 22.4979 21.6448 22.2991 21.6445 22.0933C21.6444 21.8874 21.7289 21.689 21.8757 21.5363C22.0218 21.3835 22.219 21.2903 22.4028 21.2652C22.447 21.2592 22.4895 21.2527 22.5287 21.2456L22.4802 21.2511C22.8649 21.2012 22.9839 21.2172 23.1945 21.2099C23.388 21.2074 23.5759 21.2072 23.7618 21.2074C24.2749 21.2081 24.7776 21.2129 25.2718 21.2201C25.6178 21.2252 25.9593 21.2261 26.294 21.216C26.3284 21.215 26.3625 21.2139 26.397 21.2126C26.6013 21.1615 26.7983 21.106 26.9565 21.0614L27.0635 21.0525C27.1306 21.0429 27.1941 21.0351 27.2504 21.0296C27.4313 21.0122 27.5631 21.0374 27.6757 21.0592C27.7532 21.0742 27.8216 21.0876 27.8905 21.0848C27.9275 21.0833 27.9782 21.0798 28.039 21.0757C28.2879 21.0588 28.7094 21.0331 29.0909 21.0849C29.2602 21.1078 29.4561 21.1525 29.6415 21.195C29.9072 21.2558 30.1542 21.3113 30.2714 21.293C30.3567 21.2792 30.4912 21.2727 30.5042 21.2743C30.6022 21.2671 30.721 21.2595 30.8345 21.2494C31.0318 21.2318 31.2163 21.2079 31.3109 21.1513C31.4242 21.0834 31.5336 21.075 31.6993 21.063C31.8143 21.0548 31.956 21.0443 32.1494 21.0139C32.3732 20.979 32.541 20.9803 32.6845 20.9848C32.7505 20.9868 32.8119 20.9895 32.8719 20.9902C32.9645 20.9949 33.0544 20.9825 33.1596 20.9269C33.3326 20.8353 33.5063 20.7411 33.6635 20.696C33.735 20.6756 33.8137 20.64 33.8967 20.5999C34.0068 20.5469 34.1246 20.4861 34.2465 20.4465C34.3468 20.414 34.4449 20.4095 34.533 20.4058C34.5603 20.4047 34.587 20.4034 34.6123 20.4015C34.6923 20.3624 34.775 20.3231 34.8618 20.2846C34.8735 20.2726 34.8855 20.2598 34.8987 20.2464C34.9122 20.2326 34.9265 20.2182 34.9418 20.2035C35.0174 20.1398 35.1078 20.0784 35.1955 20.0352C35.3684 19.9502 35.4626 19.9437 35.58 19.9147C35.633 19.9016 35.6878 19.8847 35.7442 19.8565C35.7866 19.8348 35.828 19.8094 35.8663 19.7787C35.9307 19.7272 35.9891 19.6584 36.0285 19.5954C36.0895 19.4995 36.0982 19.4315 36.1262 19.402C36.1275 19.4005 36.1292 19.3991 36.131 19.3979C36.1583 19.3511 36.1937 19.3234 36.2265 19.3008C36.2267 19.3007 36.2269 19.3006 36.2271 19.3005C36.2297 19.2988 36.2322 19.297 36.2347 19.2953C36.311 19.0721 36.3064 18.9078 36.2924 18.639C36.2864 18.6164 36.2803 18.5951 36.2741 18.5722C36.244 18.4626 36.2102 18.3542 36.1645 18.2847C36.1166 18.211 36.0787 18.026 36.0306 17.8205C36.0291 17.8135 36.0276 17.8064 36.0261 17.7994C35.9918 17.638 35.9609 17.4756 35.9266 17.3476C35.9066 17.2727 35.9277 17.2002 35.9495 17.1273C35.9698 17.0593 35.9907 16.9906 35.9789 16.92C35.9731 16.8849 35.9593 16.8478 35.9445 16.8096C35.9314 16.776 35.9174 16.7411 35.9071 16.7058C35.8975 16.6731 35.9036 16.5968 35.9083 16.513C35.9085 16.5094 35.9087 16.5058 35.9089 16.5023C35.9131 16.463 35.9128 16.4046 35.9065 16.3346C35.8456 16.1441 35.7703 15.9047 35.711 15.6663C35.6792 15.6202 35.6422 15.5808 35.5989 15.5522C35.5678 15.5315 35.5322 15.5152 35.4958 15.4982C35.4462 15.4747 35.3952 15.4505 35.3517 15.4118C35.3177 15.3816 35.3003 15.3422 35.3084 15.3129C35.3122 15.2991 35.3213 15.288 35.3296 15.2779C35.3391 15.2663 35.3476 15.2559 35.3458 15.2448C35.3445 15.2369 35.3357 15.2293 35.3251 15.2204C35.309 15.2069 35.2884 15.1894 35.2823 15.1596C35.2821 15.1589 35.2819 15.1582 35.2818 15.1574C35.273 15.1048 35.2614 15.0018 35.2464 14.8804C35.2298 14.7463 35.2129 14.5994 35.1914 14.4868C35.1668 14.3591 35.1732 14.1717 35.1857 13.9894C35.1943 13.8623 35.2052 13.7357 35.207 13.6308C35.2087 13.5273 35.1874 13.4206 35.1678 13.3187C35.1442 13.1948 35.123 13.0789 35.1463 12.977C35.151 12.957 35.1818 12.9317 35.2204 12.8996C35.2478 12.8772 35.2791 12.8497 35.308 12.8216C35.3069 12.7314 35.307 12.642 35.3083 12.5504C35.3088 12.518 35.3093 12.484 35.31 12.4507C35.3058 12.4466 35.3014 12.4423 35.297 12.438C35.2969 12.4379 35.2968 12.4378 35.2967 12.4378C35.1972 12.3393 35.0611 12.2053 35.1423 12.0169C35.163 11.969 35.2011 11.9385 35.2354 11.9116C35.2691 11.8851 35.2992 11.8606 35.3056 11.8259C35.3128 11.7869 35.2921 11.7387 35.2696 11.6885C35.238 11.6166 35.2027 11.5366 35.2355 11.4563C35.2378 11.4508 35.2402 11.4449 35.2427 11.4388C35.2661 11.3803 35.3007 11.2943 35.3703 11.2084C35.3889 10.9537 35.4106 10.6994 35.4344 10.4444C35.474 10.0203 35.5191 9.59562 35.5642 9.17124C35.5864 8.96476 35.6812 8.76679 35.8329 8.62078C35.9849 8.47475 36.1801 8.39274 36.3821 8.39273C36.5841 8.39275 36.7792 8.47476 36.9311 8.62078C37.0829 8.76679 37.1776 8.96475 37.1998 9.17124C37.2356 9.50778 37.2715 9.84487 37.3045 10.1814C37.3087 10.1991 37.3128 10.2168 37.3166 10.2345C37.3449 10.3655 37.4017 10.4877 37.4586 10.6093C37.4717 10.6374 37.4848 10.6655 37.4975 10.6935Z" fill="#B6BB79"/>
</svg>
