<svg width="34" height="46" viewBox="0 0 34 46" fill="none" xmlns="http://www.w3.org/2000/svg">
<path d="M25 34.3086L5.26562 38.3496L5.25488 38.3516C4.81763 38.4508 4.45406 38.6904 4.1748 39.0469C3.89787 39.4005 3.75 39.806 3.75 40.25C3.75 40.8029 3.98055 41.2742 4.4043 41.6348C4.81493 41.984 5.30217 42.1602 5.84375 42.1602H30.25V7.44336H33.5V45.5H5.84375C4.37896 45.5 3.13026 44.9982 2.07227 43.9844C1.02205 42.9779 0.5 41.7442 0.5 40.25V9.98145C0.5 8.71668 0.880562 7.5938 1.64551 6.59668C2.40352 5.60871 3.38609 4.98612 4.61328 4.7207L4.61426 4.72168L25 0.610352V34.3086ZM6.27539 7.80957L5.4873 7.9707C5.00705 8.05986 4.59351 8.27654 4.26855 8.625H3.75V35.5156L4.43945 35.2344C4.59755 35.1698 4.76529 35.1128 4.94238 35.0635C5.03488 35.0377 5.12456 35.0134 5.21191 34.9922L5.46582 34.9355L5.4707 34.9346L6.48047 34.7178L6.875 34.6328V7.6875L6.27539 7.80957ZM21.1523 4.8252L10.5273 6.94141L10.125 7.02148V33.9707L10.7227 33.8516L21.3477 31.7354L21.75 31.6553V4.70703L21.1523 4.8252Z" fill="#436741" stroke="white"/>
</svg>
