<svg width="59" height="65" viewBox="0 0 59 65" fill="none" xmlns="http://www.w3.org/2000/svg">
<path d="M45.7246 15.7725C49.2098 15.7725 52.0967 17.2812 54.4365 20.4287C56.7911 23.596 58 27.5974 58 32.5C58 36.8966 57.3837 40.4567 56.2002 43.2227C55.0969 45.8009 54.2968 47.503 53.7881 48.3926L53.5879 48.7246L53.5859 48.7266L52.2588 50.7949L52.0957 51.0488L52.1006 51.3496C52.1468 54.643 51.259 57.5896 49.4385 60.2207C47.7058 62.7248 45.1683 64 41.6689 64C39.2795 64 37.3482 63.1707 35.7998 61.5107C34.2445 59.8433 33.4502 57.7561 33.4502 55.1758C33.4502 53.6972 33.7622 52.2757 34.3916 50.9023C35.0739 49.4136 35.597 48.3548 35.9668 47.7051L36.5469 46.7617L36.8096 46.334L36.624 45.8682C36.0453 44.4192 35.3644 42.4964 34.5811 40.0938C33.8308 37.7926 33.4502 35.2638 33.4502 32.5C33.4502 28.3061 34.5645 24.4405 36.7998 20.8818C38.9634 17.4376 41.9101 15.7726 45.7246 15.7725ZM13.2754 1C17.0898 1.00011 20.0367 2.66427 22.2002 6.1084C24.4357 9.66715 25.5498 13.5335 25.5498 17.7275C25.5498 20.4911 25.1691 23.0193 24.4189 25.3203C23.6356 27.7231 22.9547 29.6457 22.376 31.0947L22.1904 31.5615L22.4531 31.9893L23.0273 32.9238C23.3975 33.5728 23.9229 34.6342 24.6084 36.1299C25.2378 37.5032 25.5498 38.9247 25.5498 40.4033C25.5498 42.9836 24.7555 45.0708 23.2002 46.7383C21.6518 48.3982 19.7204 49.2275 17.3311 49.2275C13.8317 49.2275 11.2792 47.9519 9.52148 45.4434C7.68089 42.8165 6.80703 39.8768 6.89941 36.5908L6.9082 36.2725L6.73242 36.0088L5.40527 34.0137C4.91854 33.2555 4.05558 31.4472 2.80078 28.4902C1.61587 25.6979 1.00002 22.1238 1 17.7275C1 12.825 2.20902 8.82356 4.56348 5.65625C6.90325 2.50876 9.79019 1 13.2754 1ZM45.7246 19.6816C43.0453 19.6818 40.9742 21.2127 39.502 23.8936C38.0646 26.5109 37.3496 29.3862 37.3496 32.5C37.3496 34.9577 37.695 37.2446 38.3965 39.3525C39.0648 41.3605 39.7223 43.1875 40.3691 44.832L40.5693 45.3389L41.1035 45.4463L49.2158 47.0713L49.8945 47.207L50.2607 46.6201C51.0533 45.35 51.8806 43.5008 52.749 41.1152C53.658 38.6182 54.0996 35.7399 54.0996 32.5C54.0996 29.3862 53.3856 26.5109 51.9482 23.8936C50.4759 21.2125 48.4042 19.6816 45.7246 19.6816ZM18.6758 34.4756L11.5957 35.9531L10.7998 36.1191V36.9316C10.7998 39.0509 11.2644 40.9534 12.2266 42.6055C13.2961 44.4417 15.0725 45.3183 17.3311 45.3184C18.5456 45.3184 19.5978 44.8559 20.4248 43.9639C21.283 43.0382 21.6504 41.8062 21.6504 40.4033C21.6504 39.4061 21.4147 38.4061 20.9736 37.4121C20.5696 36.5018 20.1621 35.6829 19.749 34.959L19.3877 34.3271L18.6758 34.4756ZM13.2754 4.90918C10.5958 4.90918 8.52411 6.43996 7.05176 9.12109C5.61446 11.7384 4.90039 14.6138 4.90039 17.7275C4.90042 20.9204 5.34288 23.7838 6.25 26.3018C7.11826 28.7118 7.94549 30.5757 8.73926 31.8477L9.10547 32.4346L9.78418 32.2988L17.8965 30.6738L18.4238 30.5684L18.627 30.0693C19.2764 28.4683 19.9353 26.6486 20.6045 24.6133C21.3048 22.4831 21.6504 20.1853 21.6504 17.7275C21.6504 14.6137 20.9354 11.7384 19.498 9.12109C18.0258 6.4401 15.9548 4.90933 13.2754 4.90918ZM48.2002 50.8916L47.4043 50.7256L40.3242 49.248L39.6123 49.0996L39.251 49.7314C38.8378 50.4556 38.4305 51.2749 38.0264 52.1855C37.5853 53.1794 37.3497 54.1787 37.3496 55.1758C37.3496 56.3863 37.7335 57.4958 38.4746 58.4756C39.2702 59.5273 40.3594 60.0908 41.6689 60.0908C43.9275 60.0908 45.7039 59.2142 46.7734 57.3779C47.7356 55.7259 48.2002 53.8232 48.2002 51.7041V50.8916Z" fill="#436741" stroke="white" stroke-width="2"/>
</svg>
