<svg width="18" height="13" viewBox="0 0 18 13" fill="none" xmlns="http://www.w3.org/2000/svg">
<path d="M0.9 10.02C1.04 10.0667 1.20333 10.09 1.39 10.09C1.57667 10.09 1.76333 10.09 1.95 10.09C3.21 10.09 4.16667 9.85666 4.82 9.39C5.47333 8.92333 5.8 8.45667 5.8 7.99C5.8 7.61667 5.63667 7.40667 5.31 7.36C4.98333 7.31333 4.56333 7.29 4.05 7.29C3.02333 7.29 2.23 7.01 1.67 6.45C1.15667 5.84333 0.9 5.09666 0.9 4.21C0.9 3.18333 1.18 2.36666 1.74 1.76C2.3 1.10666 3.14 0.779996 4.26 0.779996C5.33333 0.779996 6.17333 1.10666 6.78 1.76C7.43333 2.41333 7.76 3.55666 7.76 5.19C7.76 7.10333 7.22333 8.78333 6.15 10.23C5.12333 11.6767 3.37333 12.4467 0.9 12.54V10.02ZM10.49 10.02C10.63 10.0667 10.7933 10.09 10.98 10.09C11.1667 10.09 11.3533 10.09 11.54 10.09C12.8 10.09 13.7567 9.85666 14.41 9.39C15.0633 8.92333 15.39 8.45667 15.39 7.99C15.39 7.61667 15.2267 7.40667 14.9 7.36C14.5733 7.31333 14.1533 7.29 13.64 7.29C12.6133 7.29 11.82 7.01 11.26 6.45C10.7467 5.84333 10.49 5.09666 10.49 4.21C10.49 3.18333 10.77 2.36666 11.33 1.76C11.89 1.10666 12.73 0.779996 13.85 0.779996C14.9233 0.779996 15.7633 1.10666 16.37 1.76C17.0233 2.41333 17.35 3.55666 17.35 5.19C17.35 7.10333 16.8133 8.78333 15.74 10.23C14.7133 11.6767 12.9633 12.4467 10.49 12.54V10.02Z" fill="black"/>
</svg>
