<svg width="18" height="13" viewBox="0 0 18 13" fill="none" xmlns="http://www.w3.org/2000/svg">
<path d="M17.35 3.3C17.21 3.3 17.0467 3.3 16.86 3.3C16.72 3.25333 16.5567 3.23 16.37 3.23C15.0633 3.23 14.0833 3.46333 13.43 3.93C12.7767 4.39666 12.45 4.88666 12.45 5.4C12.45 5.77333 12.6133 5.98333 12.94 6.03C13.3133 6.07667 13.7567 6.1 14.27 6.1C15.2967 6.1 16.0667 6.40333 16.58 7.01C17.0933 7.57 17.35 8.29333 17.35 9.18C17.35 10.2067 17.07 11.0233 16.51 11.63C15.9967 12.2367 15.18 12.54 14.06 12.54C13.0333 12.54 12.17 12.2133 11.47 11.56C10.8167 10.9067 10.49 9.76333 10.49 8.13C10.49 6.21666 11.0267 4.56 12.1 3.16C13.1733 1.71333 14.9233 0.919997 17.35 0.779996V3.3ZM7.76 3.3C7.62 3.3 7.45667 3.3 7.27 3.3C7.13 3.25333 6.96667 3.23 6.78 3.23C5.47333 3.23 4.49333 3.46333 3.84 3.93C3.18667 4.39666 2.86 4.88666 2.86 5.4C2.86 5.77333 3.02333 5.98333 3.35 6.03C3.72333 6.07667 4.16667 6.1 4.68 6.1C5.66 6.1 6.40667 6.40333 6.92 7.01C7.48 7.57 7.76 8.29333 7.76 9.18C7.76 10.2067 7.48 11.0233 6.92 11.63C6.36 12.2367 5.52 12.54 4.4 12.54C3.37333 12.54 2.53333 12.2133 1.88 11.56C1.22667 10.9067 0.9 9.76333 0.9 8.13C0.9 6.21666 1.41333 4.56 2.44 3.16C3.51333 1.71333 5.28667 0.919997 7.76 0.779996V3.3Z" fill="black"/>
</svg>
