<svg width="14" height="12" viewBox="0 0 14 12" fill="none" xmlns="http://www.w3.org/2000/svg">
<path d="M13 1.55439V4.8886M13 4.8886H9.72727M13 4.8886L10.4691 2.46574C9.88287 1.8682 9.15761 1.43169 8.36101 1.19695C7.56441 0.962199 6.72242 0.936864 5.91361 1.12331C5.1048 1.30975 4.35553 1.70189 3.73571 2.26314C3.11589 2.82439 2.64573 3.53646 2.36909 4.33289M1 10.4456V7.1114M1 7.1114H4.27273M1 7.1114L3.53091 9.53426C4.11714 10.1318 4.84239 10.5683 5.63899 10.8031C6.43559 11.0378 7.27758 11.0631 8.08639 10.8767C8.8952 10.6903 9.64447 10.2981 10.2643 9.73686C10.8841 9.17561 11.3543 8.46354 11.6309 7.6671" stroke="#333333" stroke-linecap="round" stroke-linejoin="round"/>
</svg>
